# xmcd
#
# Track frame offsets:
#	150
#	18030
#	37975
#	57825
#	74200
#
# Disc length: 1257 seconds
#
# Revision: 0
# Processed by: cddbd v1.5.2PL0 Copyright (c) Steve Scherf et al.
# Submitted via: audiograbber 1.83.01
#
DISCID=3c04e705
DTITLE=Various Artist - The Sound Of BlueBubble Records 1
DYEAR=1994
DGENRE=House
TTITLE0=Mr. M - Forever (Radio Edit)
TTITLE1=Rama - Cryin Out (Radio Edit)
TTITLE2=Soup De Loop - Keep On (Do What U Do!)
TTITLE3=Bu Bu Man - Give Me Your Love
TTITLE4=Brothers In Vibes - Jazz House
EXTD=TR.
EXTT0=
EXTT1=
EXTT2=
EXTT3=
EXTT4=
PLAYORDER=
